<svg width="668" height="108" viewBox="0 0 668 108" fill="none" xmlns="http://www.w3.org/2000/svg">
<mask id="path-1-inside-1_625_3" fill="white">
<path fill-rule="evenodd" clip-rule="evenodd" d="M48 18.006V35.013L43.928 32.063C34.712 25.387 23.168 24.337 13.437 29.289C7.43 32.347 4.757 35.103 2.084 41C0.32 44.89 0.0409994 47.567 0.0219994 60.75L0 76H6.884H13.768L14.156 62.733C14.622 46.788 15.905 43.643 23.171 40.631C32.202 36.888 41.074 40.614 45.402 49.967C47.325 54.121 47.527 56.612 47.826 79.75L48.152 105H55.076H62V55V4.99999H108.5C154.333 4.99999 155 4.97099 155 2.99999C155 1.02499 154.333 0.999988 101.5 0.999988H48V18.006ZM166 14.456V28H162H158V34.5V41H162H166V73.044V105.088L173.25 104.794L180.5 104.5L180.764 72.75L181.028 41H187.514H194V34.5V28H187.529H181.058L180.779 14.75L180.5 1.49999L173.25 1.20599L166 0.911987V14.456ZM192 2.99999C192 5.00099 192.425 5.01199 260.25 4.75699C320.136 4.53099 328.5 4.31599 328.5 2.99999C328.5 1.68399 320.136 1.46899 260.25 1.24299C192.425 0.987988 192 0.998988 192 2.99999ZM377.332 25.959C372.471 27.117 365.483 31.59 362.074 35.727L359 39.456V33.728V28H353.988H348.976L349.238 65.75L349.5 103.5H354.5H359.5L360 77.5C360.5 51.511 360.501 51.498 363.298 45.802C366.462 39.359 369.984 36.684 377.53 34.993C387.4 32.781 396.26 35.878 400.446 43.003C402.352 46.247 402.536 48.559 403 75L403.5 103.5H408.5H413.5V73.5C413.5 43.506 413.5 43.499 411.011 38.625C407.902 32.539 402.956 28.377 396.568 26.471C391.376 24.922 382.66 24.69 377.332 25.959ZM455.383 25.892C442.3 29.255 432.272 40.358 428.991 55.114C427.224 63.062 428.153 77.06 430.925 84.247C433.841 91.808 441.459 100.096 448.81 103.706C453.992 106.251 455.482 106.5 465.5 106.5C478.106 106.5 482.689 104.986 489.957 98.42C494.072 94.702 500.008 86.954 499.992 85.32C499.984 84.399 492.646 80 491.119 80C490.578 80 489.828 80.966 489.454 82.146C488.442 85.333 481.098 92.913 477.045 94.953C475.095 95.934 471.451 97.036 468.947 97.4C453.758 99.613 441.949 89.117 439.525 71.25L438.812 66H469.551H500.29L499.724 59.249C498.531 45.019 490.691 32.728 479.77 27.966C474.086 25.487 461.215 24.393 455.383 25.892ZM555.716 30C554.391 33.025 549.081 45.945 543.915 58.711C538.749 71.477 534.24 81.602 533.896 81.211C533.551 80.82 532.121 77.35 530.718 73.5C529.315 69.65 525.053 57.95 521.246 47.5L514.325 28.5L509.04 28.193C503.959 27.899 503.777 27.976 504.337 30.193C505.906 36.409 532.951 106.484 533.903 106.801C534.506 107.002 535 106.683 535 106.092C535 105.501 540.253 92.155 546.674 76.436L558.348 47.855L570.055 77.138C576.494 93.243 582.153 106.542 582.631 106.689C583.109 106.837 590.025 89.583 598 68.346C605.975 47.11 612.65 29.345 612.833 28.868C613.017 28.39 610.686 28 607.655 28H602.144L600.213 33.25C599.151 36.138 594.731 48.262 590.391 60.194C586.051 72.126 582.202 81.576 581.838 81.194C581.474 80.812 576.362 68.575 570.477 54C564.593 39.425 559.406 26.825 558.952 26C558.338 24.887 557.504 25.918 555.716 30ZM632.239 26.286C623.616 29.542 617.867 37.553 617.787 46.422C617.697 56.404 621.676 60.606 639 68.826C651.729 74.866 655.056 77.359 656.908 82.249C658.446 86.309 656.293 91.893 652.102 94.713C649.509 96.459 647.295 97 642.753 97C634.137 97 628.846 93.974 624.5 86.562C623.582 84.997 623.111 85.075 618.75 87.514C616.138 88.975 614 90.515 614 90.935C614 92.48 619.911 99.8 622.845 101.89C633.601 109.548 653.428 108.458 661.69 99.752C666.436 94.751 668 90.813 668 83.865C668 71.402 663.456 66.683 644.5 59.462C632.458 54.874 629 51.905 629 46.154C629 32.578 648.862 30.271 657.052 42.896L658.603 45.288L662.794 42.894C665.099 41.577 666.988 40.005 666.992 39.4C667.011 36.759 660.85 30.104 656.34 27.893C650.671 25.114 637.644 24.246 632.239 26.286ZM100 27.428C76.072 34.068 65.091 62.882 77.052 87.642C87.253 108.759 118.071 114.047 136.522 97.847C140.127 94.681 146 86.893 146 85.278C146 84.804 143.423 83.153 140.273 81.608L134.546 78.799L133.023 81.126C126.634 90.888 120.183 94.379 109.525 93.841C103.292 93.526 101.447 92.997 97.813 90.484C93.353 87.398 88.803 79.802 87.492 73.25L86.841 70H116.921H147V67.088C147 61.834 144.172 49.257 142.059 45.115C134.511 30.32 116.647 22.808 100 27.428ZM229 27.592C227.075 28.424 224.037 30.52 222.25 32.249L219 35.392V31.696V28H212H205V66.5V105H211.89H218.779L219.267 79.75C219.792 52.565 220.382 48.843 224.979 43.697C227.538 40.833 228.391 40.507 233.168 40.569C236.1 40.607 239.417 40.972 240.537 41.38C242.294 42.02 242.977 41.279 245.499 36.001C248.75 29.2 248.634 28.901 242 27.009C237.162 25.63 233.118 25.811 229 27.592ZM278 27.601C271.459 29.349 263.167 34.604 259.627 39.244C258.226 41.081 255.824 45.265 254.29 48.542C251.719 54.033 251.501 55.441 251.515 66.5C251.534 82.11 253.578 87.753 262.412 96.588C270.115 104.29 276.91 107.097 287.931 107.129C298.308 107.159 307.704 103.385 312.75 97.16C313.791 95.875 314 96.409 314 100.353V105.088L321.25 104.794L328.5 104.5V66.5V28.5L321.25 28.206L314 27.912V32.534V37.156L309.792 33.554C304.915 29.379 295.053 25.968 288.145 26.066C285.59 26.102 281.025 26.793 278 27.601ZM455.838 36.182C448.715 38.079 441.993 45.785 440.366 53.92L439.75 57H463.375H487L486.978 54.25C486.943 49.906 483.593 43.635 479.508 40.268C473.643 35.433 464.547 33.863 455.838 36.182ZM104.17 39.945C99.743 41.055 94.022 45.777 91.266 50.595C86.898 58.232 86.295 58 110.475 58H131.95L130.997 55.493C128.442 48.772 124.342 43.701 119.423 41.18C116.435 39.648 108.058 38.97 104.17 39.945ZM284.5 39.888C273.27 42.799 266.982 51.12 266.212 64.085C265.109 82.683 274.086 93.956 290 93.956C305.288 93.956 314.462 83.628 314.388 66.5C314.336 54.403 310.064 46.624 300.908 41.953C296.654 39.783 288.745 38.787 284.5 39.888Z"/>
</mask>
<path fill-rule="evenodd" clip-rule="evenodd" d="M48 18.006V35.013L43.928 32.063C34.712 25.387 23.168 24.337 13.437 29.289C7.43 32.347 4.757 35.103 2.084 41C0.32 44.89 0.0409994 47.567 0.0219994 60.75L0 76H6.884H13.768L14.156 62.733C14.622 46.788 15.905 43.643 23.171 40.631C32.202 36.888 41.074 40.614 45.402 49.967C47.325 54.121 47.527 56.612 47.826 79.75L48.152 105H55.076H62V55V4.99999H108.5C154.333 4.99999 155 4.97099 155 2.99999C155 1.02499 154.333 0.999988 101.5 0.999988H48V18.006ZM166 14.456V28H162H158V34.5V41H162H166V73.044V105.088L173.25 104.794L180.5 104.5L180.764 72.75L181.028 41H187.514H194V34.5V28H187.529H181.058L180.779 14.75L180.5 1.49999L173.25 1.20599L166 0.911987V14.456ZM192 2.99999C192 5.00099 192.425 5.01199 260.25 4.75699C320.136 4.53099 328.5 4.31599 328.5 2.99999C328.5 1.68399 320.136 1.46899 260.25 1.24299C192.425 0.987988 192 0.998988 192 2.99999ZM377.332 25.959C372.471 27.117 365.483 31.59 362.074 35.727L359 39.456V33.728V28H353.988H348.976L349.238 65.75L349.5 103.5H354.5H359.5L360 77.5C360.5 51.511 360.501 51.498 363.298 45.802C366.462 39.359 369.984 36.684 377.53 34.993C387.4 32.781 396.26 35.878 400.446 43.003C402.352 46.247 402.536 48.559 403 75L403.5 103.5H408.5H413.5V73.5C413.5 43.506 413.5 43.499 411.011 38.625C407.902 32.539 402.956 28.377 396.568 26.471C391.376 24.922 382.66 24.69 377.332 25.959ZM455.383 25.892C442.3 29.255 432.272 40.358 428.991 55.114C427.224 63.062 428.153 77.06 430.925 84.247C433.841 91.808 441.459 100.096 448.81 103.706C453.992 106.251 455.482 106.5 465.5 106.5C478.106 106.5 482.689 104.986 489.957 98.42C494.072 94.702 500.008 86.954 499.992 85.32C499.984 84.399 492.646 80 491.119 80C490.578 80 489.828 80.966 489.454 82.146C488.442 85.333 481.098 92.913 477.045 94.953C475.095 95.934 471.451 97.036 468.947 97.4C453.758 99.613 441.949 89.117 439.525 71.25L438.812 66H469.551H500.29L499.724 59.249C498.531 45.019 490.691 32.728 479.77 27.966C474.086 25.487 461.215 24.393 455.383 25.892ZM555.716 30C554.391 33.025 549.081 45.945 543.915 58.711C538.749 71.477 534.24 81.602 533.896 81.211C533.551 80.82 532.121 77.35 530.718 73.5C529.315 69.65 525.053 57.95 521.246 47.5L514.325 28.5L509.04 28.193C503.959 27.899 503.777 27.976 504.337 30.193C505.906 36.409 532.951 106.484 533.903 106.801C534.506 107.002 535 106.683 535 106.092C535 105.501 540.253 92.155 546.674 76.436L558.348 47.855L570.055 77.138C576.494 93.243 582.153 106.542 582.631 106.689C583.109 106.837 590.025 89.583 598 68.346C605.975 47.11 612.65 29.345 612.833 28.868C613.017 28.39 610.686 28 607.655 28H602.144L600.213 33.25C599.151 36.138 594.731 48.262 590.391 60.194C586.051 72.126 582.202 81.576 581.838 81.194C581.474 80.812 576.362 68.575 570.477 54C564.593 39.425 559.406 26.825 558.952 26C558.338 24.887 557.504 25.918 555.716 30ZM632.239 26.286C623.616 29.542 617.867 37.553 617.787 46.422C617.697 56.404 621.676 60.606 639 68.826C651.729 74.866 655.056 77.359 656.908 82.249C658.446 86.309 656.293 91.893 652.102 94.713C649.509 96.459 647.295 97 642.753 97C634.137 97 628.846 93.974 624.5 86.562C623.582 84.997 623.111 85.075 618.75 87.514C616.138 88.975 614 90.515 614 90.935C614 92.48 619.911 99.8 622.845 101.89C633.601 109.548 653.428 108.458 661.69 99.752C666.436 94.751 668 90.813 668 83.865C668 71.402 663.456 66.683 644.5 59.462C632.458 54.874 629 51.905 629 46.154C629 32.578 648.862 30.271 657.052 42.896L658.603 45.288L662.794 42.894C665.099 41.577 666.988 40.005 666.992 39.4C667.011 36.759 660.85 30.104 656.34 27.893C650.671 25.114 637.644 24.246 632.239 26.286ZM100 27.428C76.072 34.068 65.091 62.882 77.052 87.642C87.253 108.759 118.071 114.047 136.522 97.847C140.127 94.681 146 86.893 146 85.278C146 84.804 143.423 83.153 140.273 81.608L134.546 78.799L133.023 81.126C126.634 90.888 120.183 94.379 109.525 93.841C103.292 93.526 101.447 92.997 97.813 90.484C93.353 87.398 88.803 79.802 87.492 73.25L86.841 70H116.921H147V67.088C147 61.834 144.172 49.257 142.059 45.115C134.511 30.32 116.647 22.808 100 27.428ZM229 27.592C227.075 28.424 224.037 30.52 222.25 32.249L219 35.392V31.696V28H212H205V66.5V105H211.89H218.779L219.267 79.75C219.792 52.565 220.382 48.843 224.979 43.697C227.538 40.833 228.391 40.507 233.168 40.569C236.1 40.607 239.417 40.972 240.537 41.38C242.294 42.02 242.977 41.279 245.499 36.001C248.75 29.2 248.634 28.901 242 27.009C237.162 25.63 233.118 25.811 229 27.592ZM278 27.601C271.459 29.349 263.167 34.604 259.627 39.244C258.226 41.081 255.824 45.265 254.29 48.542C251.719 54.033 251.501 55.441 251.515 66.5C251.534 82.11 253.578 87.753 262.412 96.588C270.115 104.29 276.91 107.097 287.931 107.129C298.308 107.159 307.704 103.385 312.75 97.16C313.791 95.875 314 96.409 314 100.353V105.088L321.25 104.794L328.5 104.5V66.5V28.5L321.25 28.206L314 27.912V32.534V37.156L309.792 33.554C304.915 29.379 295.053 25.968 288.145 26.066C285.59 26.102 281.025 26.793 278 27.601ZM455.838 36.182C448.715 38.079 441.993 45.785 440.366 53.92L439.75 57H463.375H487L486.978 54.25C486.943 49.906 483.593 43.635 479.508 40.268C473.643 35.433 464.547 33.863 455.838 36.182ZM104.17 39.945C99.743 41.055 94.022 45.777 91.266 50.595C86.898 58.232 86.295 58 110.475 58H131.95L130.997 55.493C128.442 48.772 124.342 43.701 119.423 41.18C116.435 39.648 108.058 38.97 104.17 39.945ZM284.5 39.888C273.27 42.799 266.982 51.12 266.212 64.085C265.109 82.683 274.086 93.956 290 93.956C305.288 93.956 314.462 83.628 314.388 66.5C314.336 54.403 310.064 46.624 300.908 41.953C296.654 39.783 288.745 38.787 284.5 39.888Z" fill="#F73019" stroke="#F73019" stroke-width="2" mask="url(#path-1-inside-1_625_3)"/>
</svg>
