<svg xmlns="http://www.w3.org/2000/svg" enable-background="new 0 0 100 100" viewBox="0 0 100 100" id="whatsapp"><path fill-rule="evenodd" fill="#ffffff" d="M83.413,16.404C44.228-21.646-17.245,25.425,9.388,73.137c-0.001,0-6.673,24.363-6.673,24.363l24.933-6.538
			C75.35,116.182,121.017,55.062,83.413,16.404z M50.143,88.745c-7.593,0.027-14.974-2.253-21.34-6.295
			c0,0-14.796,3.879-14.796,3.879l3.95-14.421c-4.438-6.577-6.941-14.291-6.907-22.275C10.98,15.084,53.475-2.531,77.796,22.018
			C102.312,46.358,84.702,88.821,50.143,88.745z" clip-rule="evenodd"></path><path fill-rule="evenodd" fill="#ffffff" d="M71.585,59.476c-1.175-0.588-6.953-3.431-8.03-3.823c-1.077-0.392-1.861-0.588-2.644,0.589
			c-0.784,1.176-3.034,3.822-3.72,4.605c-0.685,0.785-1.371,0.883-2.546,0.295c-1.175-0.589-4.96-1.829-9.45-5.832
			c-3.493-3.115-5.852-6.961-6.538-8.138c-0.685-1.175-0.073-1.812,0.516-2.398c1.023-1.123,2.318-2.535,2.937-4.018
			c0.392-0.785,0.196-1.471-0.098-2.059c-0.294-0.588-2.578-6.4-3.623-8.723c-0.88-1.957-1.807-1.996-2.644-2.031
			c-1.983,0.031-3.518-0.484-5.386,1.443c-7.004,6.741-3.792,16.214,0.685,21.955c0.587,0.784,8.13,13.028,20.075,17.738
			c9.927,3.915,11.947,3.136,14.102,2.94c2.155-0.196,6.953-2.842,7.932-5.586c0.979-2.744,0.979-5.096,0.686-5.587
			C73.544,60.358,72.76,60.064,71.585,59.476z" clip-rule="evenodd"></path></svg>